<svg width="17" height="22" viewBox="0 0 17 22" fill="none" xmlns="http://www.w3.org/2000/svg">
<path d="M14.3846 8.06695L5.04769 8.06697L4.70933 6.51561C4.13231 4.3146 5.13465 2.12026 7.42867 1.49198C9.69948 0.870036 11.7009 2.20081 12.2881 4.43959L12.5659 5.56681C12.6594 5.92342 13.0177 6.13494 13.3669 6.03936C13.7157 5.94378 13.9227 5.5775 13.8292 5.22092L13.551 4.09367C12.7748 1.13102 10.0695 -0.615153 7.09031 0.20062C4.09962 1.01971 2.68273 3.9483 3.44642 6.86182L3.70927 8.06693H2.61538C1.173 8.06693 0 9.26603 0 10.7405V18.7612C0 20.2357 1.173 21.4348 2.61538 21.4348H14.3846C15.827 21.4348 17 20.2357 17 18.7612V10.7405C17 9.26603 15.827 8.06693 14.3846 8.06693V8.06695ZM15.6923 18.7612C15.6923 19.4981 15.1055 20.098 14.3846 20.098H2.61538C1.89452 20.098 1.30769 19.4981 1.30769 18.7612V10.7405C1.30769 10.0036 1.89452 9.40374 2.61538 9.40374H14.3846C15.1055 9.40374 15.6923 10.0036 15.6923 10.7405V18.7612ZM8.5 12.0773C7.77783 12.0773 7.19231 12.6759 7.19231 13.4141C7.19231 13.9077 7.45712 14.3338 7.84615 14.5654V16.7561C7.84615 17.125 8.13908 17.4244 8.5 17.4244C8.86092 17.4244 9.15385 17.125 9.15385 16.7561V14.5654C9.54288 14.3338 9.80769 13.9074 9.80769 13.4141C9.80769 12.6759 9.22217 12.0773 8.5 12.0773Z" fill="white"/>
</svg>
